<?xml version="1.0" encoding="UTF-8" standalone="no"?>
<svg
   xmlns:dc="http://purl.org/dc/elements/1.1/"
   xmlns:cc="http://creativecommons.org/ns#"
   xmlns:rdf="http://www.w3.org/1999/02/22-rdf-syntax-ns#"
   xmlns:svg="http://www.w3.org/2000/svg"
   xmlns="http://www.w3.org/2000/svg"
   height="300px"
   width="300px"
   fill="#000000"
   version="1.1"
   x="0px"
   y="0px"
   viewBox="0 0 100 100"
   style="enable-background:new 0 0 100 100;"
   xml:space="preserve"
   id="svg16"><metadata
     id="metadata22"><rdf:RDF><cc:Work
         rdf:about=""><dc:format>image/svg+xml</dc:format><dc:type
           rdf:resource="http://purl.org/dc/dcmitype/StillImage" /><dc:title></dc:title></cc:Work></rdf:RDF></metadata><defs
     id="defs20" /><style
     type="text/css"
     id="style2">
	.st0{fill:#000000;}
</style><path
     class="st0"
     d="M73,104.4"
     id="path4" /><g
     id="g14"
     transform="matrix(1.5,0,0,1.5,-25.825,-27.1)"
     style="stroke-width:0.666667"><circle
       cx="37.700001"
       cy="29.4"
       r="5.4000001"
       id="circle6"
       style="stroke-width:0.666667" /><path
       d="m 44.4,38.5 c -0.3,-1.2 -1.5,-2.1 -2.8,-2.1 h -7.9 c -1.3,0 -2.4,0.9 -2.8,2.1 l -3.2,11.7 4,3.4 2.1,25.2 h 7.7 l 2.1,-25.2 4,-3.4 z"
       id="path8"
       style="stroke-width:0.666667" /><circle
       cx="62.200001"
       cy="29.4"
       r="5.4000001"
       id="circle10"
       style="stroke-width:0.666667" /><path
       d="m 73.4,62.4 -5.2,-9 3.9,-3.4 -2.9,-10.5 c -0.5,-1.9 -2.3,-3.2 -4.3,-3.2 h -5.5 c -2,0 -3.7,1.3 -4.3,3.2 l -2.9,10.5 3.9,3.4 -5.2,9 h 6 l 1.3,16.3 h 7.7 l 1.3,-16.3 z"
       id="path12"
       style="stroke-width:0.666667" /></g></svg>
