<?xml version="1.0" encoding="UTF-8" standalone="no"?>
<svg
   xmlns:dc="http://purl.org/dc/elements/1.1/"
   xmlns:cc="http://creativecommons.org/ns#"
   xmlns:rdf="http://www.w3.org/1999/02/22-rdf-syntax-ns#"
   xmlns:svg="http://www.w3.org/2000/svg"
   xmlns="http://www.w3.org/2000/svg"
   version="1.1"
   width="1000"
   height="1000"
   id="svg18">
  <metadata
     id="metadata24">
    <rdf:RDF>
      <cc:Work
         rdf:about="">
        <dc:format>image/svg+xml</dc:format>
        <dc:type
           rdf:resource="http://purl.org/dc/dcmitype/StillImage" />
        <dc:title></dc:title>
      </cc:Work>
    </rdf:RDF>
  </metadata>
  <defs
     id="defs22" />
  <rect
     width="1000"
     height="1000"
     rx="500"
     ry="500"
     fill="#ffffff"
     id="rect2"
     style="fill:#ffffff;stroke-width:1"
     x="0"
     y="0" />
  <g
     id="g976"
     transform="translate(127.6837,86.733781)">
    <circle
       cx="529.59113"
       cy="116.26658"
       r="72.89991"
       id="circle10"
       style="stroke-width:0.999998" />
    <path
       d="m 289.29141,239.11645 c -4.05,-16.19998 -20.24998,-28.34998 -37.79996,-28.34998 H 144.84157 c -17.54997,0 -32.39996,12.15 -37.79995,28.34998 l -43.199945,157.9498 53.999935,45.89994 28.34996,340.19958 h 103.94988 l 28.34997,-340.19958 53.99993,-45.89994 z"
       id="path8"
       style="stroke-width:0.999998" />
    <circle
       cx="198.84151"
       cy="116.26658"
       r="72.89991"
       id="circle6"
       style="stroke-width:0.999998" />
    <path
       d="M 680.79092,561.76605 610.59101,440.2662 663.24094,394.36625 624.09099,252.61643 C 617.341,226.96646 593.04103,209.41648 566.04106,209.41648 h -74.2499 c -26.99997,0 -49.94994,17.54998 -58.04993,43.19995 l -39.14995,141.74982 52.64993,45.89995 -70.19991,121.49985 h 80.9999 l 17.54998,220.04973 h 103.94987 l 17.54998,-220.04973 z"
       id="path12"
       style="stroke-width:0.999998" />
    <svg
       height="300"
       width="300"
       fill="#000000"
       version="1.1"
       x="0px"
       y="0px"
       viewBox="0 0 100 100"
       xml:space="preserve"
       id="svg16"><metadata
         id="metadata22"><rdf:rdf><cc:work
             rdf:about=""><dc:format>image/svg+xml</dc:format><dc:type
               rdf:resource="http://purl.org/dc/dcmitype/StillImage" /><dc:title /></cc:work></rdf:rdf></metadata><defs
         id="defs20" /><style
         type="text/css"
         id="style2">
	.st0{fill:#000000;}
</style><path
         class="st0"
         d="M 73,104.4"
         id="path4" /></svg>
  </g>
</svg>
