<?xml version="1.0" standalone="no"?>
<!DOCTYPE svg PUBLIC "-//W3C//DTD SVG 20010904//EN"
 "http://www.w3.org/TR/2001/REC-SVG-20010904/DTD/svg10.dtd">
<svg version="1.0" xmlns="http://www.w3.org/2000/svg"
 width="700.000000pt" height="700.000000pt" viewBox="0 0 700.000000 700.000000"
 preserveAspectRatio="xMidYMid meet">
<metadata>
Created by potrace 1.14, written by Peter Selinger 2001-2017
</metadata>
<g transform="translate(0.000000,700.000000) scale(0.100000,-0.100000)"
fill="#000000" stroke="none">
<path d="M2553 5311 c-100 -26 -206 -109 -251 -197 -111 -219 25 -498 265
-542 228 -41 435 122 447 353 11 207 -144 379 -352 390 -42 2 -91 0 -109 -4z"/>
<path d="M4236 5299 c-262 -89 -345 -411 -159 -611 231 -246 634 -100 651 237
7 160 -70 287 -217 358 -84 40 -187 46 -275 16z"/>
<path d="M2443 4450 c-149 -5 -152 -5 -195 -35 -47 -34 -82 -88 -97 -150 -5
-22 -55 -206 -110 -409 -81 -296 -99 -372 -89 -381 7 -7 70 -60 141 -120 100
-86 127 -114 128 -134 0 -14 2 -34 4 -43 2 -9 6 -59 9 -110 4 -51 8 -109 10
-128 3 -19 7 -69 10 -110 10 -126 17 -213 21 -255 2 -22 6 -76 9 -120 4 -44 8
-98 11 -120 2 -22 7 -76 10 -120 5 -79 12 -153 20 -230 2 -22 7 -78 10 -125 4
-47 8 -101 10 -120 4 -37 17 -216 18 -237 0 -16 -20 -15 279 -17 226 -2 258 0
262 13 3 9 7 54 11 101 4 47 8 101 10 120 2 19 6 71 9 115 4 44 9 100 11 125
2 25 7 79 10 120 3 41 8 95 10 120 2 25 7 77 10 115 3 39 7 95 10 125 2 30 7
89 11 130 3 41 7 91 9 110 2 19 6 71 10 115 3 44 8 100 10 125 2 25 7 83 11
130 4 47 8 96 9 110 2 14 3 39 4 56 1 26 19 46 141 149 77 65 140 120 140 122
0 2 -21 79 -46 171 -25 92 -47 174 -49 182 -2 8 -22 83 -45 165 -23 83 -49
177 -56 210 -30 126 -63 178 -136 216 -32 17 -63 20 -220 22 -101 1 -251 0
-335 -3z"/>
<path d="M4065 4443 c-79 -24 -151 -85 -186 -158 -11 -22 -29 -74 -40 -115
-12 -41 -30 -106 -40 -145 -11 -38 -26 -92 -33 -120 -37 -138 -107 -389 -111
-396 -3 -4 21 -29 52 -56 63 -52 115 -98 177 -155 47 -42 50 -29 -40 -178 -27
-47 -53 -92 -57 -100 -4 -8 -18 -33 -32 -55 -14 -22 -28 -47 -32 -55 -4 -8
-23 -42 -43 -75 -20 -33 -39 -67 -43 -75 -4 -8 -21 -37 -37 -65 -16 -27 -29
-53 -30 -57 0 -4 91 -7 202 -8 111 0 203 -2 205 -4 7 -6 11 -40 17 -136 4 -52
9 -111 11 -130 2 -19 7 -78 10 -130 4 -52 8 -111 10 -130 2 -19 6 -73 10 -120
3 -47 8 -101 10 -120 2 -19 7 -82 11 -139 3 -57 8 -111 9 -120 2 -9 4 -37 4
-64 l1 -47 272 2 273 3 1 30 c1 17 4 66 8 110 4 44 9 109 12 145 2 36 6 88 9
115 2 28 7 84 10 125 3 41 8 98 10 125 3 28 7 86 10 130 3 44 8 98 10 120 2
22 7 83 11 135 3 52 7 96 9 98 2 2 98 3 214 3 116 0 211 3 211 8 0 4 -79 144
-175 310 -96 166 -175 305 -175 310 0 4 60 60 134 124 l133 117 -44 157 c-24
87 -53 192 -64 233 -11 41 -31 116 -45 165 -14 50 -26 97 -28 105 -36 142 -87
217 -182 265 l-59 30 -255 2 c-204 1 -265 -1 -305 -14z"/>
</g>
</svg>
